<svg width="257" height="257" viewBox="0 0 257 257" fill="none" xmlns="http://www.w3.org/2000/svg">
<circle cx="128.5" cy="128.5" r="128.5" fill="#18CDCA"/>
<path d="M128.5 0C155.637 3.236e-07 182.076 8.59086 204.03 24.5413C225.984 40.4918 242.325 62.9829 250.711 88.7913L128.5 128.5V0Z" fill="#18A0FB"/>
<path d="M250.711 88.7913C258.034 111.33 258.982 135.454 253.45 158.498C247.917 181.541 236.12 202.606 219.363 219.363C202.606 236.12 181.541 247.917 158.498 253.45C135.454 258.982 111.33 258.034 88.7914 250.711L128.5 128.5L250.711 88.7913Z" fill="#4F80E1"/>
<path d="M88.7913 250.711C62.9829 242.325 40.4918 225.984 24.5413 204.03L128.5 128.5L88.7913 250.711Z" fill="#37AEE2"/>
</svg>
