<svg width="50" height="50" viewBox="0 0 50 50" fill="none" xmlns="http://www.w3.org/2000/svg">
<path d="M4.89377 21.9255C4.6907 21.1678 4.69067 20.3701 4.89369 19.6124C5.09671 18.8547 5.49561 18.1638 6.05031 17.6091L17.6089 6.05057C18.1635 5.49587 18.8544 5.09697 19.6121 4.89395C20.3698 4.69094 21.1676 4.69096 21.9253 4.89404L32.7412 7.79216C32.8538 6.31041 33.3697 4.88769 34.233 3.6781L21.206 0.187884C20.2709 -0.0626333 19.2864 -0.0626281 18.3514 0.1879C17.4164 0.43843 16.5637 0.930657 15.8792 1.61511L1.61511 15.8792C0.930652 16.5638 0.438428 17.4164 0.1879 18.3514C-0.062628 19.2864 -0.0626334 20.2709 0.187884 21.206L3.81237 34.7326C4.99722 33.8278 6.40787 33.2658 7.89035 33.1082L4.89377 21.9255Z" fill="#18CDCA"/>
<path d="M42.0095 16.5174L45.1062 28.0738C45.3093 28.8316 45.3091 29.6293 45.1062 30.3869C44.903 31.1447 44.504 31.8355 43.9494 32.3902L32.3908 43.949C31.8361 44.5037 31.1453 44.9024 30.3875 45.1056C29.6299 45.3084 28.832 45.3084 28.0744 45.1056L16.8918 42.109C16.7342 43.5915 16.1723 45.0022 15.2673 46.187L28.794 49.8114C29.7289 50.0621 30.7135 50.0621 31.6484 49.8114C32.5836 49.5608 33.4361 49.0688 34.1207 48.3842L48.3848 34.1201C49.0694 33.4355 49.5614 32.583 49.8121 31.6478C50.0627 30.7129 50.0627 29.7283 49.8121 28.7934L46.0509 14.7603C44.8911 15.707 43.4926 16.315 42.0095 16.5174Z" fill="#18CDCA"/>
<path d="M4.1376 36.5982C3.22152 37.5141 2.59765 38.6815 2.3449 39.952C2.09215 41.2227 2.22187 42.5398 2.71765 43.7367C3.21341 44.9334 4.05298 45.9565 5.13015 46.6764C6.20735 47.3959 7.47376 47.7803 8.7693 47.7803C10.0648 47.7803 11.3313 47.3959 12.4084 46.6764C13.4856 45.9565 14.3252 44.9334 14.821 43.7367C15.3167 42.5398 15.4465 41.2227 15.1937 39.952C14.941 38.6815 14.3171 37.5141 13.401 36.5982C12.1716 35.3717 10.5059 34.6827 8.7693 34.6827C7.03268 34.6827 5.36696 35.3717 4.1376 36.5982Z" fill="#4F80E1"/>
<path d="M36.2594 3.79984C35.3434 4.7159 34.7193 5.88304 34.4668 7.15368C34.214 8.4243 34.3436 9.74135 34.8395 10.9383C35.3353 12.1352 36.1747 13.1582 37.2518 13.8779C38.3291 14.5977 39.5955 14.9819 40.8909 14.9819C42.1866 14.9819 43.453 14.5977 44.5303 13.8779C45.6074 13.1582 46.4468 12.1352 46.9427 10.9383C47.4385 9.74135 47.5681 8.4243 47.3153 7.15368C47.0628 5.88304 46.4387 4.7159 45.5228 3.79984C44.2935 2.57324 42.6276 1.88438 40.8909 1.88438C39.1545 1.88438 37.4886 2.57324 36.2594 3.79984Z" fill="#4F80E1"/>
<path d="M28.8447 42.363C28.5816 42.363 28.3198 42.3285 28.0657 42.2604L17.8294 39.5175C17.4881 37.6948 16.6038 36.0177 15.2926 34.7066C13.9813 33.3955 12.3044 32.511 10.4817 32.1698L7.739 21.9343C7.60303 21.4237 7.60341 20.8864 7.74016 20.3761C7.87692 19.8658 8.14522 19.4003 8.51825 19.0261L19.0247 8.51939C19.3984 8.14563 19.864 7.87687 20.3745 7.74006C20.8851 7.60327 21.4226 7.6033 21.9331 7.74014L31.8825 10.4061C32.2771 12.2175 33.2096 13.8674 34.5579 15.1399C35.9062 16.4123 37.6074 17.2478 39.4385 17.5371L42.2593 28.0668C42.3952 28.5776 42.3949 29.1149 42.2579 29.6251C42.1212 30.1355 41.853 30.601 41.4798 30.9753L30.9733 41.4817C30.6945 41.7619 30.3625 41.9843 29.9971 42.1354C29.6318 42.2867 29.2401 42.364 28.8447 42.363Z" fill="#4F80E1"/>
</svg>
